# xmcd
#
# Track frame offsets:
#	150
#	24721
#	68106
#
# Disc length: 1567 seconds
#
# Revision: 0
# Processed by: cddbd v1.5PL3 Copyright (c) Steve Scherf et al.
# Submitted via: audiograbber 1.82.01
#
DISCID=21061d03
DTITLE=J. J. Cale - High Sierra Music Festival CD2
DYEAR=1993
DGENRE=Blues
TTITLE0=Magnolia
TTITLE1=Same Old Blues
TTITLE2=Get My Mojo Working
EXTD=04 july 1993, Leyland Meadows, California
EXTT0=
EXTT1=
EXTT2=
PLAYORDER=
